<svg xmlns="http://www.w3.org/2000/svg" aria-labelledby="title desc" viewBox="0 0 354 72"><defs><linearGradient id="a"><stop offset=".05" stop-color="#0c2775"/><stop offset=".33" stop-color="#489956"/><stop offset=".53" stop-color="#f4df6c"/></linearGradient></defs><path fill="none" stroke="url(#a)" stroke-width="4.2" d="M122.2 17.17s1.2.2 19.9-.36c14.48-.43 44.19.63 70.52-11.1 27.87-12.42 36.75 10.59 75.52 11.54 1.94.05 7.66-.17 9.24-.07"/><path fill="#0c2775" d="M81.51 53.67c0-3.07.2-6.62.2-9.7 0-9.98-3.27-15.16-11.91-15.16-3.65 0-10.47 1.44-16.61 8.64l-.2-.3v-7c0-.77-.09-.96-.57-.96-2.11.38-5.57.48-7.77.29l-.2.29c.68 4.12.87 11.42.87 18.62v5.28c0 7.2-.1 12.1-.87 17.28l.2.29a36 36 0 0 1 9.02 0l.2-.29c-.78-5.47-.87-9.98-.87-17.28V42.44c4.9-5.76 10.46-7.87 13.92-7.87 4.9 0 6.91 1.92 6.91 9.7v9.4c0 7.2-.2 12.1-.86 17.28l.19.29a36 36 0 0 1 9.02 0l.2-.29c-.77-5.47-.87-9.98-.87-17.28m11.23-2.4c0 11.52 7.59 20.64 20.35 20.64 12.68 0 20.36-8.93 20.36-21.5 0-13.06-7.01-21.6-19.97-21.6-12.58 0-20.74 8.83-20.74 22.46m20.07-18.62c10.17 0 12.19 7.87 12.19 19.48 0 9.12-4.61 15.94-11.04 15.94-10.18 0-12.77-11.04-12.77-18.43 0-8.35 2.6-17 11.62-17m11.8-13.35c1.25 0 2.3-1.73 2.3-2.88 0-.57-.38-1.34-1.34-1.34h-23.52c-1.05 0-2.1 1.63-2.1 2.78 0 .67.38 1.44 1.24 1.44z"/><path fill="#f4df6c" d="M152.65 37.16v-7.01c0-.77-.1-.96-.58-.96-2.11.38-5.57.48-7.78.29l-.19.29c.67 4.12.87 11.42.87 18.62v5.28c0 7.2-.1 12.1-.87 17.28l.2.29a36 36 0 0 1 9.02 0l.19-.29c-.77-5.47-.86-9.98-.86-17.28V42.05c4.5-4.6 9.88-7.48 13.24-7.48 3.65 0 6.34 2.1 6.34 8.54v10.56c0 7.2-.1 12.1-.86 17.28l.19.29a36 36 0 0 1 9.02 0l.2-.29c-.77-5.47-.87-9.98-.87-17.28v-9.7c0-1.34 0-2.5-.1-3.64 4.61-5.1 8.45-5.76 12.2-5.76 5.18 0 7.68 2.1 7.68 8.54v10.56c0 7.2-.1 12.1-.87 17.28l.2.29a36 36 0 0 1 9.02 0l.19-.29c-.77-5.47-.86-9.98-.86-17.28v-9.6c0-8.54-1.54-15.26-11.9-15.26-5.2 0-10.76 1.82-16.23 7.58-.87-4.6-4.8-7.58-10.18-7.58-5.95 0-11.61 3.84-16.13 8.64zm70.56 11.23v5.28c0 7.2-.2 12.1-.87 17.28l.2.29a36 36 0 0 1 9.02 0l.19-.29c-.67-5.47-.86-9.98-.86-17.28v-6.82c0-7.2.28-10.65.86-16.5 0-.87-.1-.97-.86-.97-2.21.2-6.34.29-8.36.1l-.19.29c.58 4.12.87 11.42.87 18.62m-.96-34.75c0 2.59 2.3 4.9 4.9 4.9 2.58 0 4.89-2.31 4.89-4.9s-2.3-4.9-4.9-4.9c-2.59 0-4.9 2.3-4.9 4.9m61.44 40.03c0-3.07.19-6.62.19-9.7 0-9.98-3.27-15.16-11.9-15.16-3.65 0-10.47 1.44-16.61 8.64l-.2-.3v-7c0-.77-.1-.96-.57-.96-2.11.38-5.57.48-7.78.29l-.19.29c.67 4.12.86 11.42.86 18.62v5.28c0 7.2-.1 12.1-.86 17.28l.2.29a36 36 0 0 1 9.02 0l.19-.29c-.77-5.47-.87-9.98-.87-17.28V42.44c4.9-5.76 10.47-7.87 13.92-7.87 4.9 0 6.92 1.92 6.92 9.7v9.4c0 7.2-.2 12.1-.87 17.28l.2.29a36 36 0 0 1 9.02 0l.19-.29c-.77-5.47-.86-9.98-.86-17.28m16.22-5.28v5.28c0 7.2-.2 12.1-.86 17.28l.19.29a36 36 0 0 1 9.02 0l.2-.29c-.68-5.47-.87-9.98-.87-17.28v-6.82c0-7.2.29-10.65.86-16.5 0-.87-.1-.97-.86-.97a60 60 0 0 1-8.35.1l-.2.29c.58 4.12.87 11.42.87 18.62m14.4-29.09c1.15 0 2.11-1.73 2.11-2.88 0-.57-.38-1.34-1.25-1.34h-21.21c-.87 0-1.83 1.63-1.83 2.78 0 .67.3 1.44 1.06 1.44z"/><path fill="none" stroke="#898580" stroke-width="3" d="m319.23 38.87 30 10-30 10m-284.49-20-30 10 30 10" class="bracket"/></svg>